<?xml version="1.0" encoding="UTF-8"?>
<!-- Generated by Pixelmator Pro 3.6.9 -->
<svg width="717" height="640" viewBox="0 0 717 640" xmlns="http://www.w3.org/2000/svg">
    <linearGradient id="linearGradient1" x1="327.663456" y1="733.461715" x2="328.089162" y2="-120.644618" gradientUnits="userSpaceOnUse">
        <stop offset="0" stop-color="#b24592" stop-opacity="1"/>
        <stop offset="1" stop-color="#f15f79" stop-opacity="1"/>
    </linearGradient>
    <path id="Rechteck-Kopie" fill="url(#linearGradient1)" fill-rule="evenodd" stroke="none" visibility="hidden" d="M -69 732 L 786 732 L 786 -123 L -69 -123 Z"/>
    <g id="Gruppe-Kopie">
        <path id="Form-Kopie-5" fill="#ffffff" fill-opacity="0.39971" fill-rule="evenodd" stroke="none" d="M 661.623901 327.5 C 658.071045 346.612335 655.862671 355.837341 654.424255 360.330536 C 652.985779 364.823761 650.872559 371.231232 649.728149 374.569397 C 648.58374 377.907593 647.927856 381.369629 648.27063 382.262817 C 648.616272 383.163635 651.700684 384.764496 655.196899 385.857727 C 658.663635 386.941711 664.200012 389.010376 667.5 390.454742 C 670.799988 391.899109 675.356018 393.995209 677.624451 395.112793 C 679.892883 396.230347 683.192139 398.34964 684.956116 399.822357 C 687.224243 401.715942 688.569519 404.065674 689.550354 407.847015 C 690.623352 411.983704 690.693604 414.330231 689.860779 418.213501 C 689.140259 421.573273 687.602539 424.541016 685.210388 427.188904 C 683.24469 429.364685 679.805725 432.089935 677.568237 433.245056 C 675.17865 434.478699 671.643188 435.338348 669 435.328491 C 665.899963 435.316895 661.622131 434.019135 655.24939 431.157043 C 650.16156 428.871979 642.371643 425.389252 637.938416 423.417603 C 633.505188 421.445984 629.299805 420.054718 628.593079 420.325928 C 627.886353 420.597107 622.646118 427.047241 616.94812 434.659515 C 611.250061 442.27179 604.096191 451.130585 601.050537 454.345703 C 596.844482 458.785828 596.383606 459.677734 595 461 C 593.521301 462.413147 594.933411 461.313751 593 463 C 591.711731 464.123596 590.737549 464.948822 586.645508 468.674133 C 583.729919 471.328369 576.65448 477.15274 570.922241 481.617188 C 565.190002 486.081665 557.125 491.984985 553 494.735718 C 548.875 497.48645 540.775024 502.443298 535 505.750916 C 529.224976 509.058563 519.899658 514.109741 514.276978 516.975708 C 508.654297 519.841736 499.879333 523.771606 494.776978 525.70874 C 489.674622 527.645874 482.125 530.320923 478 531.653198 C 473.875 532.985535 466.142578 535.355469 460.816833 536.919861 C 452.315308 539.417053 449.175354 541.062988 435.084503 550.408325 C 426.257416 556.262695 394.839844 577.124756 365.267639 596.768555 C 335.695435 616.412354 309.024994 634.062988 306 635.992249 C 301.044525 639.15271 299.707947 639.525818 292.5 639.760681 C 287.271912 639.931091 283.460541 639.540161 281.5 638.632507 C 279.850006 637.868591 277.313873 635.951294 275.864166 634.371765 C 274.414459 632.792297 272.501953 630.059875 271.614166 628.299683 C 270.201691 625.499207 270 619.61084 270 581.172119 C 270 547.240723 269.715546 537.012939 268.75 536.225403 C 268.0625 535.664734 262.399994 510.375977 258 509 C 255.667999 508.270752 149.640305 467.645935 102 402 C 59.752945 343.785706 75.070587 259.860504 75.849548 256.5 C 77.506897 249.350006 80.228897 239.450012 81.898453 234.5 C 83.568008 229.549988 86.469788 221.899994 88.346832 217.5 C 90.223877 213.100006 93.612381 205.899994 95.876816 201.5 C 99.993988 193.5 99.993988 193.5 100.246994 113.999939 C 100.5 34.499939 100.5 34.499939 103.164886 29.999939 C 104.630569 27.524963 107.330582 24.085938 109.164886 22.357727 C 110.999207 20.629517 114.488388 18.219177 116.918625 17.001404 C 119.845276 15.534851 123.239731 14.769348 126.971619 14.734192 C 131.626114 14.690308 134.596756 15.557556 144.052994 19.720947 C 150.348831 22.492859 161.799988 27.46106 169.499985 30.761353 C 177.199982 34.061584 189.125 39.132568 196 42.030151 C 202.875 44.927734 212.325012 48.970581 217 51.014343 C 221.674988 53.058044 230.715881 57.015259 237.09082 59.808167 C 248.681671 64.886108 248.681671 64.886108 261.59082 60.49408 C 268.690887 58.078491 279.899994 54.722595 286.5 53.03656 C 293.100006 51.350464 305.024994 48.871948 313 47.528625 C 320.975006 46.185303 332.899994 44.62146 339.5 44.053406 C 346.100006 43.485352 357.799988 43.017761 365.5 43.014343 C 373.200012 43.010925 386.475006 43.668884 395 44.476501 C 403.524994 45.284119 415.899994 46.883545 422.5 48.030823 C 429.100006 49.178101 439.674988 51.427124 446 53.028625 C 452.325012 54.630127 462.900024 57.766296 469.5 59.997803 C 477.150818 62.584656 482.768494 63.928284 485 63.704956 C 486.924988 63.512329 496.493225 59.91333 506.262756 55.707214 C 516.032288 51.501099 532.567322 44.440491 543.007324 40.017029 C 553.447327 35.593506 570.896729 28.155029 581.783752 23.487122 C 598.88446 16.154968 602.351929 14.999939 607.261902 14.999939 C 611.327087 14.999939 614.529785 15.750122 618.510132 17.634766 C 621.570801 19.083923 625.621704 22.07666 627.512268 24.285278 C 629.402771 26.493958 631.624207 30.145752 632.44873 32.400452 C 633.722839 35.884644 633.996277 48.357178 634.270508 115.499939 C 634.593079 194.5 634.593079 194.5 639.694031 204 C 642.499573 209.225006 646.380859 217.549988 648.319153 222.5 C 650.257385 227.450012 653.215027 236 654.891663 241.5 C 656.568237 247 658.904236 256.899994 660.082642 263.5 C 661.261108 270.100006 662.456848 277.637512 662.739868 280.25 C 663.254456 285 663.254456 285 681.377258 285.021973 C 696.746948 285.040588 700.107666 285.320679 703.5 286.865662 C 705.700012 287.867615 709.161072 290.529755 711.191223 292.781525 C 713.221436 295.033295 715.417114 298.660248 716.070618 300.84137 C 716.724121 303.022522 716.960449 306.397217 716.595886 308.340729 C 716.231262 310.284241 714.485535 314.034241 712.716492 316.674103 C 710.812317 319.515503 707.664001 322.499176 705 323.986908 C 700.735046 326.368713 699.484619 326.526123 681.061951 327 Z"/>
        <path id="Form-Kopie-2" fill="#ffffff" fill-rule="evenodd" stroke="none" d="M 636.424255 346.330536 C 637.862671 341.837341 640.071045 332.612335 643.623901 313.5 L 663.061951 313 C 681.484619 312.526123 682.735046 312.368713 687 309.986908 C 689.664001 308.499176 692.812317 305.515503 694.716492 302.674103 C 696.485535 300.034241 698.231262 296.284241 698.595886 294.340729 C 698.960449 292.397217 698.724121 289.022522 698.070618 286.84137 C 697.417114 284.660248 695.221436 281.033295 693.191223 278.781525 C 691.161072 276.529755 687.700012 273.867615 685.5 272.865662 C 682.107666 271.320679 678.746948 271.040588 663.377258 271.021973 C 645.254456 271 645.254456 271 644.739868 266.25 C 644.456848 263.637512 643.261108 256.100006 642.082642 249.5 C 640.904236 242.899994 638.568237 233 636.891663 227.5 C 635.215027 222 632.257385 213.450012 630.319153 208.5 C 628.380859 203.549988 624.499573 195.225006 621.694031 190 C 616.593079 180.5 616.593079 180.5 616.270508 101.499939 C 615.996277 34.357178 615.722839 21.884644 614.44873 18.400452 C 613.624207 16.145752 611.402771 12.493958 609.512268 10.285278 C 607.621704 8.07666 603.570801 5.083923 600.510132 3.634766 C 596.529785 1.750122 593.327087 0.999939 589.261902 0.999939 C 584.351929 0.999939 580.88446 2.154968 563.783752 9.487122 C 552.896729 14.155029 535.447327 21.593506 525.007324 26.017029 C 514.567322 30.440491 498.032288 37.501099 488.262756 41.707214 C 478.493225 45.91333 468.924988 49.512329 467 49.704956 C 464.768494 49.928284 459.150818 48.584656 451.5 45.997803 C 444.900024 43.766296 434.325012 40.630127 428 39.028625 C 421.674988 37.427124 411.100006 35.178101 404.5 34.030823 C 397.899994 32.883545 385.524994 31.284119 377 30.476501 C 368.475006 29.668884 355.200012 29.010925 347.5 29.014343 C 339.799988 29.017761 328.100006 29.485352 321.5 30.053406 C 314.899994 30.62146 302.975006 32.185303 295 33.528625 C 287.024994 34.871948 275.100006 37.350464 268.5 39.03656 C 261.899994 40.722595 250.690887 44.078491 243.59082 46.49408 C 236.923172 48.762573 233.699402 49.859375 230.54361 49.690002 C 227.589493 49.531433 224.694931 48.263306 219.09082 45.808167 C 212.715881 43.015259 203.674988 39.058044 199 37.014343 C 194.325012 34.970581 184.875 30.927734 177.999985 28.030151 C 171.124985 25.132568 159.199982 20.061584 151.499985 16.761353 C 143.799988 13.46106 132.348831 8.492859 126.052994 5.720947 C 116.596756 1.557556 113.626114 0.690308 108.971619 0.734192 C 105.239731 0.769348 101.845276 1.534851 98.918625 3.001404 C 96.488388 4.219177 92.999207 6.629517 91.164886 8.357727 C 89.330582 10.085938 86.630569 13.524963 85.164886 15.999939 C 82.5 20.499939 82.5 20.499939 82.246994 99.999939 C 81.993988 179.5 81.993988 179.5 77.876816 187.5 C 75.612381 191.899994 72.223877 199.100006 70.346832 203.5 C 68.469788 207.899994 65.568008 215.549988 63.898453 220.5 C 62.228897 225.450012 59.506897 235.350006 57.849548 242.5 C 56.1922 249.649994 54.481178 258.779388 54.047256 262.787506 C 53.613342 266.795624 53.085999 270.247345 52.875389 270.457947 C 52.664772 270.668549 43.682846 270.989166 32.915543 271.170441 C 13.338623 271.5 13.338623 271.5 9.698181 274.27887 C 7.695938 275.807251 4.818405 278.682587 3.303665 280.668518 C 1.085243 283.577026 0.477081 285.564941 0.176758 290.889648 C -0.172112 297.075012 0.024918 297.820587 3.241417 302.486694 C 5.515686 305.785889 8.330521 308.323853 11.559616 309.986694 C 16.168457 312.360016 17.479874 312.519043 35.103935 312.841797 C 53.767563 313.183594 53.767563 313.183594 54.267242 318.341797 C 54.542068 321.178802 55.975594 328.450012 57.45285 334.5 C 58.930115 340.549988 61.923279 350.63678 64.104309 356.91507 C 66.285355 363.193359 67.697144 368.70285 67.241608 369.158386 C 66.786087 369.613922 63.73288 371.077911 60.456696 372.411713 C 57.180511 373.745544 51.961121 375.909943 48.85804 377.221497 C 45.754959 378.533081 40.461533 381.074341 37.094864 382.868744 C 32.552063 385.290039 30.468155 387.122162 29.013313 389.973907 C 27.935135 392.087311 26.779732 395.545258 26.445763 397.658234 C 26.059204 400.103912 26.448593 403.317017 27.517288 406.5 C 28.440598 409.25 30.389427 412.778717 31.848015 414.341583 C 33.30661 415.904449 36.169571 418.041931 38.210159 419.091583 C 40.418854 420.227661 43.963837 421 46.969872 421 C 51.09021 421 54.915932 419.689209 67.759705 413.87677 C 76.41687 409.958984 84.625 406.571564 86 406.349152 C 88.055817 406.016602 88.969589 406.704773 91.143036 410.222382 C 92.596695 412.575073 97.008911 418.549988 100.947968 423.5 C 104.887009 428.450012 111.710754 436.430115 116.111847 441.233612 C 120.512955 446.037109 129.092346 454.245789 135.177185 459.47522 C 141.262039 464.70459 150.573914 472.060913 155.87027 475.82254 C 161.166611 479.584198 170.005081 485.415649 175.511322 488.781372 C 181.017548 492.147034 192.267548 498.160095 200.511322 502.143616 C 208.755096 506.127167 219.549988 510.920044 224.5 512.794434 C 229.450012 514.668823 237.100006 517.328186 241.5 518.704163 C 245.899994 520.080139 250.0625 521.664734 250.75 522.225403 C 251.715546 523.012939 252 533.240723 252 567.172119 C 252 605.61084 252.201691 611.499207 253.614166 614.299683 C 254.501953 616.059875 256.414459 618.792297 257.864166 620.371765 C 259.313873 621.951294 261.850006 623.868591 263.5 624.632507 C 265.460541 625.540161 269.271912 625.931091 274.5 625.760681 C 281.707947 625.525818 283.044525 625.15271 288 621.992249 C 291.024994 620.062988 317.695435 602.412354 347.267639 582.768555 C 376.839844 563.124756 408.257416 542.262695 417.084503 536.408325 C 431.175354 527.062988 434.315308 525.417053 442.816833 522.919861 C 448.142578 521.355469 455.875 518.985535 460 517.653198 C 464.125 516.320923 471.674622 513.645874 476.776978 511.70874 C 481.879333 509.771606 490.654297 505.841736 496.276978 502.975708 C 501.899658 500.109741 511.224976 495.058563 517 491.750916 C 522.775024 488.443298 530.875 483.48645 535 480.735718 C 539.125 477.984985 547.190002 472.081665 552.922241 467.617188 C 558.65448 463.15274 565.729919 457.328369 568.645508 454.674133 C 572.737549 450.948822 573.711731 450.123596 575 449 C 576.933411 447.313751 575.521301 448.413147 577 447 C 578.383606 445.677734 578.844482 444.785828 583.050537 440.345703 C 586.096191 437.130554 593.250061 428.27179 598.94812 420.659485 C 604.646118 413.047241 609.886353 406.597107 610.593079 406.325928 C 611.299805 406.054718 615.505188 407.445984 619.938416 409.417603 C 624.371643 411.389221 632.16156 414.871979 637.24939 417.157043 C 643.622131 420.019135 647.899963 421.316895 651 421.328491 C 653.643188 421.338348 657.17865 420.478699 659.568237 419.245056 C 661.805725 418.089935 665.24469 415.364685 667.210388 413.188904 C 669.602539 410.541016 671.140259 407.573273 671.860779 404.213501 C 672.693604 400.330231 672.623352 397.983704 671.550354 393.847015 C 670.569519 390.065674 669.224243 387.715942 666.956116 385.822357 C 665.192139 384.34964 661.892883 382.230347 659.624451 381.112793 C 657.356018 379.995209 652.799988 377.899109 649.5 376.454742 C 646.200012 375.010376 640.663635 372.941711 637.196899 371.857727 C 633.700684 370.764496 630.616272 369.163635 630.27063 368.262817 C 629.927856 367.369629 630.58374 363.907593 631.728149 360.569397 C 632.872559 357.231232 634.985779 350.823761 636.424255 346.330536 Z M 290.555237 414.095276 C 293.70639 414.507141 298.12146 414.640015 301.273621 414.334473 C 304.878387 413.985046 310.84375 412.653412 315.7435 411.165863 C 320.735046 409.650391 326.758148 407.346924 330.334869 405.440063 C 333.696381 403.64801 338.083832 400.233856 341.414246 397.767761 C 344.348419 395.595154 346.835693 392.299255 348.503326 392.16217 C 349.6828 392.065186 350.589905 392.717834 352.182068 393.863312 C 352.839783 394.336487 353.61441 394.893799 354.573395 395.51709 C 357.87854 397.665253 362.112579 401.985352 366.138916 404.268585 C 371.190125 407.133026 376.911346 409.50647 383.673645 411.353271 C 389.995453 413.079773 396.669067 414.093506 401.883636 414.091248 C 406.984528 414.089111 413.157654 413.03717 418.917297 411.515259 C 424.025635 410.165527 429.980103 407.857178 433.363983 405.968781 C 436.504974 404.215912 440.696045 400.875641 443.676483 398.105164 C 446.637177 395.353088 450.159546 391.456665 452.108643 388.576782 C 453.855591 385.995728 455.727448 382.539581 456.361115 380.11142 C 456.964142 377.800598 457.186035 374.31604 456.737915 371.739532 C 456.259979 368.991791 454.683441 365.183533 452.962555 362.537842 C 451.298462 359.979523 448.731873 357.235199 446.728668 356.030914 C 444.701599 354.812286 440.954376 353.866425 437.813293 353.507111 C 434.579987 353.137238 430.351166 353.145996 427.723297 353.99234 C 424.902466 354.900879 422.112762 357.438538 419.14859 359.551422 C 416.370026 361.532043 413.374237 364.708588 410.872864 366.019196 C 408.506958 367.258728 404.899384 368.483093 402.157074 368.733459 C 398.879669 369.032684 395.364746 368.814789 391.737518 367.479095 C 387.645813 365.972412 383.480591 364.195557 380.356262 359.925659 C 375.853821 353.772461 374.694092 351.839691 374.694794 340.109924 C 374.695465 328.334442 377.354889 327.170349 380.471649 319.899536 C 382.88092 314.279144 386.259003 312.664703 387.453339 308.024719 C 388.564575 303.707397 388.416199 300.654602 387.128479 296.311035 C 385.865295 292.050323 384.29361 289.435577 381.067902 286.395325 C 378.32486 283.810059 375.096344 282.446808 372.132416 281.634033 C 368.921051 280.753418 362.268982 280.733215 355.323395 280.712128 C 354.102356 280.708435 352.872223 280.704712 351.650146 280.696259 C 350.947235 280.691406 350.238159 280.685822 349.526093 280.680206 C 341.747253 280.618927 333.612701 280.55484 329.283905 281.41095 C 325.412384 282.176636 321.951202 283.372864 319.278107 285.16098 C 317.072449 286.636444 314.780823 289.334045 313.511688 291.349121 C 312.300507 293.272156 311.114349 296.159363 310.78067 298.309296 C 310.413361 300.676086 310.463287 304.639557 311.403961 307.739044 C 312.770721 312.242615 316.033813 314.444183 318.513611 320.062988 C 321.71756 327.32251 323.340454 328.398529 324.318207 338.310425 C 325.047119 345.69931 324.006073 350.293396 322.600311 353.675751 C 321.627136 356.017273 318.932098 359.010559 316.584045 361.171539 C 314.160858 363.401611 310.573364 365.90921 307.851501 367.062164 C 305.239685 368.168549 301.413239 368.950256 298.594055 369.015656 C 295.917908 369.077728 292.551453 368.519409 290.527252 367.700775 C 288.016876 366.685516 284.157288 362.906555 279.941193 360.347229 C 273.952393 356.711823 271.69635 354.609467 267.021484 353.554596 C 263.98291 352.868927 260.00708 353.331207 257.54126 353.935028 C 255.25528 354.494751 252.311813 355.900452 250.467514 357.266968 C 248.574493 358.669556 246.054047 361.126129 244.856293 363.467072 C 243.165695 366.771301 242.399765 369.543762 242.481735 374.599396 C 242.567566 379.89505 243.478958 382.738373 245.50972 386.836212 C 247.072617 389.989868 250.536804 393.812256 253.259979 396.468506 C 256.103607 399.242249 260.655212 402.730347 264.287292 404.898621 C 268.015472 407.124359 273.632874 409.569763 277.861206 411.021179 C 281.897064 412.406494 287.146179 413.64978 290.555237 414.095276 Z M 449.43277 290.506836 C 454.502075 292.335083 458.43457 293.267242 465.560059 293.073425 C 473.726776 292.851257 476.417419 292.2229 483.037262 289.307739 C 487.396942 287.387909 492.396332 283.628143 495.266388 280.623657 C 498.1521 277.602905 501.317383 272.854523 502.977417 268.637299 C 505.267303 262.819977 506.070068 259.242371 505.99527 251.89151 C 505.917786 244.27179 505.213654 241.223236 502.651398 235.279419 C 500.860657 231.125214 497.177673 226.306854 494.112396 223.199005 C 491.212433 220.25882 486.774078 217.147827 483.522339 215.491455 C 480.299194 213.849701 475.266449 212.037415 471.332489 211.544617 C 465.389496 210.80014 462.639038 210.698608 455.300903 212.569946 C 448.654022 214.264954 444.877319 216.257446 440.139557 219.625366 C 436.668488 222.092804 432.906067 226.223938 430.787628 229.263611 C 428.739227 232.202789 426.574951 236.819702 425.460938 240.376953 C 424.349976 243.924408 423.527069 248.917572 423.512451 252.449951 C 423.497925 255.94989 424.286194 260.817291 425.31662 264.250397 C 426.343567 267.671967 428.376404 272.131256 430.263977 274.997101 C 432.162292 277.879089 435.456879 281.589264 438.302551 283.918396 C 441.227448 286.312408 445.773926 289.187286 449.43277 290.506836 Z M 217.407593 289.933899 C 223.291473 292.345978 226.385941 293.121948 234.582062 293.097992 C 242.826645 293.073914 245.653748 292.20462 251.417206 289.894623 C 255.109818 288.414612 259.267914 285.384888 261.75705 283.202576 C 264.116302 281.134216 266.995026 277.744995 268.73349 275.012665 C 270.591125 272.093018 272.888489 267.331635 274.02359 263.407867 C 275.436035 258.525574 276.110474 254.658844 275.863892 249.907532 C 275.655457 245.891754 274.368073 240.31665 272.557922 236.350189 C 270.233429 231.256622 267.768921 227.267914 262.96109 222.822418 C 257.386108 217.667542 254.340561 215.933868 247.123032 213.353638 C 240.672745 211.047729 236.802353 210.889587 231.603989 211.041687 C 227.877197 211.150696 222.933105 212.377197 219.620224 213.550659 C 216.365356 214.703583 212.031525 216.847351 209.223923 218.890656 C 206.381149 220.959503 202.834579 224.468903 200.671707 227.415375 C 198.49263 230.383881 196.074738 234.887451 194.990387 238.344452 C 193.659317 242.588043 192.800812 247.600006 193.039902 253.443359 C 193.340607 260.792236 193.859573 263.80603 196.514053 269.722839 C 198.470871 274.084534 202.027679 278.557587 205.340042 281.749023 C 208.448669 284.74411 213.396515 288.289581 217.407593 289.933899 Z"/>
    </g>
</svg>
